<svg id="visual" viewBox="0 0 900 900" width="900" height="900" xmlns="http://www.w3.org/2000/svg" xmlns:xlink="http://www.w3.org/1999/xlink" version="1.1"><rect x="0" y="0" width="900" height="900" fill="#121212"></rect><defs><linearGradient id="grad1_0" x1="0%" y1="100%" x2="100%" y2="0%"><stop offset="30%" stop-color="#121212" stop-opacity="1"></stop><stop offset="70%" stop-color="#121212" stop-opacity="1"></stop></linearGradient></defs><defs><linearGradient id="grad2_0" x1="0%" y1="100%" x2="100%" y2="0%"><stop offset="30%" stop-color="#121212" stop-opacity="1"></stop><stop offset="70%" stop-color="#121212" stop-opacity="1"></stop></linearGradient></defs><g transform="translate(900, 900)"><path d="M-509.1 0C-503.5 -67.2 -497.8 -134.4 -470.4 -194.8C-442.9 -255.2 -393.8 -308.8 -338.7 -338.7C-283.7 -368.6 -222.7 -374.7 -165.3 -399.1C-107.9 -423.6 -53.9 -466.3 0 -509.1L0 0Z" fill="#FF7F11"></path></g><g transform="translate(0, 0)"><path d="M509.1 0C436.7 48 364.2 96.1 323.4 133.9C282.5 171.8 273.3 199.4 262.3 262.3C251.4 325.2 238.8 423.4 194.8 470.4C150.8 517.4 75.4 513.2 0 509.1L0 0Z" fill="#FF7F11"></path></g></svg>